<svg width="30" height="30" viewBox="0 0 30 30" fill="none" xmlns="http://www.w3.org/2000/svg">
<g id="edit_note_FILL0_wght400_GRAD0_opsz48 1">
<path id="Vector" d="M15 26.25V24.0312L21.75 17.2812L23.9688 19.5L17.2188 26.25H15ZM3.75 19.6875V17.8125H13.125V19.6875H3.75ZM25.3125 18.1562L23.0938 15.9375L24 15.0312C24.1667 14.8646 24.3854 14.7812 24.6563 14.7812C24.9271 14.7812 25.1458 14.8646 25.3125 15.0312L26.2188 15.9375C26.3854 16.1042 26.4688 16.3229 26.4688 16.5938C26.4688 16.8646 26.3854 17.0833 26.2188 17.25L25.3125 18.1562ZM3.75 14.5312V12.6562H18.4375V14.5312H3.75ZM3.75 9.375V7.5H18.4375V9.375H3.75Z" fill="black" fill-opacity="0.5"/>
</g>
</svg>
